<svg width="2660" height="244" viewBox="0 0 2660 244" fill="none" xmlns="http://www.w3.org/2000/svg">
<path d="M-10.33 6.35999V4.35999H-12.33V6.35999H-10.33ZM-10.33 237H-12.33V239H-10.33L-10.33 237ZM60.97 237V239H62.97V237H60.97ZM60.97 84.17L62.3671 82.7389L58.97 79.4225V84.17L60.97 84.17ZM217.52 237L216.123 238.431L216.706 239H217.52V237ZM288.82 237V239H290.82V237H288.82ZM288.82 6.35999H290.82V4.35999H288.82V6.35999ZM217.52 6.35999L217.52 4.35999H215.52L215.52 6.35999H217.52ZM217.52 151.44L216.116 152.865L219.52 156.218V151.44H217.52ZM70.27 6.35999L71.6737 4.93533L71.0897 4.35999H70.27V6.35999ZM-12.33 6.35999L-12.33 237H-8.33L-8.33 6.35999H-12.33ZM-10.33 239H60.97V235H-10.33L-10.33 239ZM62.97 237L62.97 84.17L58.97 84.17L58.97 237H62.97ZM59.5729 85.6011L216.123 238.431L218.917 235.569L62.3671 82.7389L59.5729 85.6011ZM217.52 239H288.82V235H217.52V239ZM290.82 237L290.82 6.35999H286.82L286.82 237H290.82ZM288.82 4.35999L217.52 4.35999L217.52 8.35999L288.82 8.35999V4.35999ZM215.52 6.35999V151.44H219.52V6.35999H215.52ZM218.924 150.015L71.6737 4.93533L68.8663 7.78467L216.116 152.865L218.924 150.015ZM70.27 4.35999L-10.33 4.35999V8.35999L70.27 8.35999V4.35999ZM495.932 0.329994C422.625 0.329994 381.389 18.6185 358.513 42.526C335.643 66.4266 331.491 95.5594 331.491 116.41H335.491C335.491 96.0306 339.555 68.1234 361.403 45.2915C383.244 22.4665 423.228 4.32999 495.932 4.32999V0.329994ZM331.491 116.41V125.71H335.491V116.41H331.491ZM331.491 125.71C331.491 146.253 335.643 175.685 358.501 199.97C381.374 224.269 422.61 243.03 495.932 243.03V239.03C423.243 239.03 383.259 220.436 361.414 197.228C339.554 174.004 335.491 145.777 335.491 125.71H331.491ZM495.932 243.03L509.261 243.03V239.03L495.932 239.03V243.03ZM509.261 243.03C582.275 243.03 623.433 224.268 646.304 199.97C669.16 175.688 673.392 146.258 673.392 125.71H669.392C669.392 145.772 665.253 174.002 643.391 197.228C621.545 220.437 581.638 239.03 509.261 239.03V243.03ZM673.392 125.71V116.41H669.392V125.71H673.392ZM673.392 116.41C673.392 95.5493 669.081 66.421 646.175 42.5248C623.262 18.6206 582.108 0.329994 509.261 0.329994V4.32999C581.495 4.32999 621.406 22.4644 643.288 45.2927C665.177 68.129 669.392 96.0407 669.392 116.41H673.392ZM509.261 0.329994H495.932V4.32999H509.261V0.329994ZM593.752 122.92C593.752 135.857 589.926 150.741 576.828 162.425C563.692 174.143 540.924 182.92 502.442 182.92V186.92C541.459 186.92 565.346 178.027 579.49 165.41C593.672 152.759 597.752 136.643 597.752 122.92H593.752ZM502.442 182.92C463.657 182.92 440.896 173.914 427.839 162.013C414.812 150.14 411.132 135.098 411.132 122.3H407.132C407.132 135.852 411.046 152.12 425.144 164.969C439.212 177.791 463.106 186.92 502.442 186.92V182.92ZM411.132 122.3V118.58H407.132V122.3H411.132ZM411.132 118.58C411.132 105.757 414.515 91.2874 427.349 79.9741C440.239 68.6113 462.998 60.13 502.442 60.13V56.13C462.525 56.13 438.629 64.6987 424.704 76.9734C410.723 89.2976 407.132 105.053 407.132 118.58H411.132ZM502.442 60.13C541.255 60.13 564.025 68.6069 577.078 79.9816C590.078 91.3109 593.752 105.792 593.752 118.58H597.752C597.752 105.018 593.83 89.2741 579.705 76.9659C565.633 64.7031 541.748 56.13 502.442 56.13V60.13ZM593.752 118.58V122.92H597.752V118.58H593.752ZM796.719 237H794.719V239H796.719V237ZM869.569 237V239H871.569V237H869.569ZM869.569 60.92V58.92H867.569V60.92H869.569ZM969.079 60.92V62.92H971.079V60.92H969.079ZM969.079 6.35999H971.079V4.35999H969.079V6.35999ZM697.519 6.35999V4.35999H695.519V6.35999H697.519ZM697.519 60.92H695.519V62.92H697.519V60.92ZM796.719 60.92H798.719V58.92H796.719V60.92ZM796.719 239L869.569 239V235L796.719 235V239ZM871.569 237V60.92H867.569V237H871.569ZM869.569 62.92L969.079 62.92V58.92L869.569 58.92V62.92ZM971.079 60.92V6.35999H967.079V60.92H971.079ZM969.079 4.35999L697.519 4.35999V8.35999L969.079 8.35999V4.35999ZM695.519 6.35999V60.92H699.519V6.35999H695.519ZM697.519 62.92L796.719 62.92V58.92L697.519 58.92V62.92ZM794.719 60.92V237H798.719V60.92H794.719ZM1013.92 6.35999V4.35999H1011.92V6.35999H1013.92ZM1013.92 237H1011.92V239H1013.92V237ZM1085.84 237V239H1087.84V237H1085.84ZM1085.84 145.55V143.55H1083.84V145.55H1085.84ZM1248.28 145.55V147.55H1250.28V145.55H1248.28ZM1248.28 92.85H1250.28V90.85H1248.28V92.85ZM1085.84 92.85H1083.84V94.85H1085.84V92.85ZM1085.84 58.75V56.75H1083.84V58.75H1085.84ZM1252.31 58.75V60.75H1254.31V58.75H1252.31ZM1252.31 6.35999L1254.31 6.35999V4.35999L1252.31 4.35999V6.35999ZM1011.92 6.35999V237H1015.92V6.35999H1011.92ZM1013.92 239H1085.84V235H1013.92V239ZM1087.84 237V145.55H1083.84V237H1087.84ZM1085.84 147.55L1248.28 147.55V143.55L1085.84 143.55V147.55ZM1250.28 145.55V92.85H1246.28V145.55H1250.28ZM1248.28 90.85L1085.84 90.85V94.85L1248.28 94.85V90.85ZM1087.84 92.85V58.75H1083.84V92.85H1087.84ZM1085.84 60.75L1252.31 60.75V56.75L1085.84 56.75V60.75ZM1254.31 58.75V6.35999L1250.31 6.35999V58.75H1254.31ZM1252.31 4.35999L1013.92 4.35999V8.35999L1252.31 8.35999V4.35999ZM1454.49 0.329994C1381.18 0.329994 1339.94 18.6185 1317.07 42.526C1294.2 66.4266 1290.05 95.5594 1290.05 116.41H1294.05C1294.05 96.0306 1298.11 68.1234 1319.96 45.2915C1341.8 22.4665 1381.78 4.32999 1454.49 4.32999V0.329994ZM1290.05 116.41V125.71H1294.05V116.41H1290.05ZM1290.05 125.71C1290.05 146.253 1294.2 175.685 1317.06 199.97C1339.93 224.269 1381.16 243.03 1454.49 243.03V239.03C1381.8 239.03 1341.81 220.436 1319.97 197.228C1298.11 174.004 1294.05 145.777 1294.05 125.71H1290.05ZM1454.49 243.03H1467.82V239.03H1454.49V243.03ZM1467.82 243.03C1540.83 243.03 1581.99 224.268 1604.86 199.97C1627.71 175.688 1631.95 146.258 1631.95 125.71H1627.95C1627.95 145.772 1623.81 174.002 1601.95 197.228C1580.1 220.437 1540.19 239.03 1467.82 239.03V243.03ZM1631.95 125.71V116.41H1627.95V125.71H1631.95ZM1631.95 116.41C1631.95 95.5493 1627.63 66.421 1604.73 42.5248C1581.82 18.6206 1540.66 0.329994 1467.82 0.329994V4.32999C1540.05 4.32999 1579.96 22.4644 1601.84 45.2927C1623.73 68.129 1627.95 96.0407 1627.95 116.41H1631.95ZM1467.82 0.329994H1454.49V4.32999H1467.82V0.329994ZM1552.31 122.92C1552.31 135.857 1548.48 150.741 1535.38 162.425C1522.25 174.143 1499.48 182.92 1461 182.92V186.92C1500.01 186.92 1523.9 178.027 1538.04 165.41C1552.23 152.759 1556.31 136.643 1556.31 122.92H1552.31ZM1461 182.92C1422.21 182.92 1399.45 173.914 1386.39 162.013C1373.37 150.14 1369.69 135.098 1369.69 122.3H1365.69C1365.69 135.852 1369.6 152.12 1383.7 164.969C1397.77 177.791 1421.66 186.92 1461 186.92V182.92ZM1369.69 122.3V118.58H1365.69V122.3H1369.69ZM1369.69 118.58C1369.69 105.757 1373.07 91.2874 1385.9 79.9741C1398.79 68.6113 1421.55 60.13 1461 60.13V56.13C1421.08 56.13 1397.18 64.6987 1383.26 76.9734C1369.28 89.2976 1365.69 105.053 1365.69 118.58H1369.69ZM1461 60.13C1499.81 60.13 1522.58 68.6069 1535.63 79.9816C1548.63 91.3109 1552.31 105.792 1552.31 118.58H1556.31C1556.31 105.018 1552.38 89.2741 1538.26 76.9659C1524.19 64.7031 1500.3 56.13 1461 56.13V60.13ZM1552.31 118.58V122.92H1556.31V118.58H1552.31ZM1968.33 6.35999H1970.33V4.35999H1968.33V6.35999ZM1896.1 6.35999V4.35999H1894.1V6.35999H1896.1ZM1744.2 6.35999H1746.2V4.35999H1744.2V6.35999ZM1671.66 6.35999V4.35999H1669.66V6.35999H1671.66ZM1826.66 242.41C1886.2 242.41 1922.23 222.537 1943.33 196.885C1964.36 171.312 1970.33 140.275 1970.33 118.27H1966.33C1966.33 139.665 1960.51 169.698 1940.24 194.345C1920.03 218.913 1885.23 238.41 1826.66 238.41V242.41ZM1970.33 118.27V6.35999H1966.33V118.27H1970.33ZM1968.33 4.35999L1896.1 4.35999V8.35999L1968.33 8.35999V4.35999ZM1894.1 6.35999V113.93H1898.1V6.35999H1894.1ZM1894.1 113.93C1894.1 128.548 1890.74 144.666 1880.01 157.109C1869.33 169.495 1851.05 178.58 1820.46 178.58V182.58C1851.87 182.58 1871.4 173.22 1883.04 159.721C1894.63 146.279 1898.1 129.072 1898.1 113.93H1894.1ZM1820.46 178.58C1789.39 178.58 1770.96 169.489 1760.24 157.106C1749.48 144.668 1746.2 128.555 1746.2 113.93H1742.2C1742.2 129.065 1745.58 146.277 1757.22 159.724C1768.9 173.226 1788.59 182.58 1820.46 182.58V178.58ZM1746.2 113.93V6.35999H1742.2V113.93H1746.2ZM1744.2 4.35999L1671.66 4.35999V8.35999L1744.2 8.35999V4.35999ZM1669.66 6.35999V118.27H1673.66V6.35999H1669.66ZM1669.66 118.27C1669.66 140.226 1674.75 171.281 1695.64 196.88C1716.61 222.557 1753.2 242.41 1815.5 242.41V238.41C1754.11 238.41 1718.78 218.892 1698.74 194.35C1678.64 169.729 1673.66 139.714 1673.66 118.27H1669.66ZM1815.5 242.41H1826.66V238.41H1815.5V242.41ZM2019.4 6.35999V4.35999H2017.4V6.35999H2019.4ZM2019.4 237H2017.4V239H2019.4V237ZM2090.7 237V239H2092.7V237H2090.7ZM2090.7 84.17L2092.09 82.7389L2088.7 79.4225V84.17H2090.7ZM2247.24 237L2245.85 238.431L2246.43 239H2247.24V237ZM2318.54 237V239H2320.54V237H2318.54ZM2318.54 6.35999H2320.54V4.35999H2318.54V6.35999ZM2247.24 6.35999V4.35999H2245.24V6.35999H2247.24ZM2247.24 151.44L2245.84 152.865L2249.24 156.218V151.44H2247.24ZM2099.99 6.35999L2101.4 4.93533L2100.81 4.35999H2099.99V6.35999ZM2017.4 6.35999V237H2021.4V6.35999H2017.4ZM2019.4 239H2090.7V235H2019.4V239ZM2092.7 237V84.17H2088.7V237H2092.7ZM2089.3 85.6011L2245.85 238.431L2248.64 235.569L2092.09 82.7389L2089.3 85.6011ZM2247.24 239L2318.54 239V235L2247.24 235V239ZM2320.54 237V6.35999H2316.54V237H2320.54ZM2318.54 4.35999L2247.24 4.35999V8.35999L2318.54 8.35999V4.35999ZM2245.24 6.35999V151.44H2249.24V6.35999H2245.24ZM2248.65 150.015L2101.4 4.93533L2098.59 7.78467L2245.84 152.865L2248.65 150.015ZM2099.99 4.35999L2019.4 4.35999V8.35999L2099.99 8.35999V4.35999ZM2372.52 237H2370.52V239H2372.52V237ZM2372.52 6.35999V4.35999H2370.52V6.35999H2372.52ZM2444.75 60.92V58.92H2442.75V60.92H2444.75ZM2444.75 181.51H2442.75V183.51H2444.75V181.51ZM2372.52 239H2525.66V235H2372.52V239ZM2525.66 239C2593.36 239 2634.54 223.284 2658.8 200.962C2683.09 178.613 2690.1 149.942 2690.1 124.78H2686.1C2686.1 149.218 2679.31 176.657 2656.09 198.018C2632.85 219.406 2592.81 235 2525.66 235V239ZM2690.1 124.78V115.48H2686.1V124.78H2690.1ZM2690.1 115.48C2690.1 89.2168 2682.69 61.2988 2658.14 39.9955C2633.64 18.7419 2592.39 4.35999 2525.35 4.35999V8.35999C2591.91 8.35999 2632.04 22.6531 2655.51 43.017C2678.93 63.3312 2686.1 89.9732 2686.1 115.48H2690.1ZM2525.35 4.35999L2372.52 4.35999V8.35999L2525.35 8.35999V4.35999ZM2370.52 6.35999V237H2374.52V6.35999H2370.52ZM2444.75 62.92H2519.77V58.92H2444.75V62.92ZM2519.77 62.92C2561.08 62.92 2583.65 71.7926 2595.91 83.1565C2608.11 94.4723 2610.46 108.61 2610.46 120.13H2614.46C2614.46 108.09 2612 92.6227 2598.63 80.2235C2585.31 67.8724 2561.53 58.92 2519.77 58.92V62.92ZM2610.46 120.13V121.99H2614.46V120.13H2610.46ZM2610.46 121.99C2610.46 133.473 2607.82 147.705 2595.45 159.115C2583.03 170.566 2560.44 179.51 2519.77 179.51V183.51C2560.93 183.51 2584.69 174.474 2598.16 162.055C2611.67 149.595 2614.46 134.067 2614.46 121.99H2610.46ZM2519.77 179.51H2444.75V183.51H2519.77V179.51ZM2446.75 181.51V60.92H2442.75V181.51H2446.75Z" fill="white"/>
</svg>
